<svg width="91" height="112" viewBox="0 0 91 112" fill="none" xmlns="http://www.w3.org/2000/svg">
<g filter="url(#filter0_d_1_212)">
<path d="M8.53711 15C8.53711 10.5817 12.1188 7 16.5371 7H74.2871C78.7054 7 82.2871 10.5817 82.2871 15V55H8.53711V15Z" fill="#FF671D"/>
<path d="M56.1982 20.2139H34.626C34.2722 20.2129 33.9217 20.2821 33.5949 20.4175C33.268 20.5528 32.9712 20.7516 32.7217 21.0024C32.4721 21.2532 32.2747 21.5509 32.141 21.8785C32.0073 22.206 31.9398 22.5568 31.9425 22.9106L31.9293 39.0895C31.928 39.4439 31.9969 39.7952 32.132 40.1229C32.2671 40.4507 32.4657 40.7485 32.7163 40.9991C32.967 41.2498 33.2648 41.4484 33.5925 41.5834C33.9203 41.7185 34.2715 41.7874 34.626 41.7861H56.1982C56.5527 41.7874 56.904 41.7185 57.2317 41.5834C57.5595 41.4484 57.8572 41.2498 58.1079 40.9991C58.3586 40.7485 58.5572 40.4507 58.6922 40.1229C58.8273 39.7952 58.8962 39.4439 58.8949 39.0895V22.9106C58.8962 22.5561 58.8273 22.2048 58.6922 21.8771C58.5572 21.5493 58.3586 21.2516 58.1079 21.0009C57.8572 20.7502 57.5595 20.5517 57.2317 20.4166C56.904 20.2815 56.5527 20.2126 56.1982 20.2139ZM57.2317 39.1229C57.2317 39.6752 56.784 40.1229 56.2317 40.1229H34.5949C34.0426 40.1229 33.5949 39.6752 33.5949 39.1229V30.9994H57.2317V39.1229ZM57.2317 26.9377H33.5925L33.5944 22.878C33.5947 22.3259 34.0423 21.8785 34.5944 21.8785H56.2317C56.784 21.8785 57.2317 22.3262 57.2317 22.8785V26.9377Z" fill="white"/>
<path d="M8.53711 55H82.2871V95C82.2871 99.4183 78.7054 103 74.2871 103H16.5371C12.1188 103 8.53711 99.4183 8.53711 95V55Z" fill="white"/>
<path d="M36.1302 62.976H37.7962V63.032L34.0722 67.33L38.0482 72.944V73H36.4662L33.2042 68.324L31.6642 70.102V73H30.3762V62.976H31.6642V68.142H31.7202L36.1302 62.976ZM40.1492 73H38.8612V66.14H40.0932V67.26H40.1492C40.2798 66.896 40.5458 66.588 40.9472 66.336C41.3578 66.0747 41.7592 65.944 42.1512 65.944C42.5245 65.944 42.8418 66 43.1032 66.112L42.7112 67.358C42.5525 67.2927 42.3005 67.26 41.9552 67.26C41.4698 67.26 41.0452 67.456 40.6812 67.848C40.3265 68.24 40.1492 68.6973 40.1492 69.22V73ZM46.6033 73.224C45.5953 73.224 44.7646 72.8787 44.1113 72.188C43.4579 71.4973 43.1313 70.6247 43.1313 69.57C43.1313 68.5247 43.4486 67.6567 44.0833 66.966C44.7179 66.266 45.5299 65.916 46.5193 65.916C47.5366 65.916 48.3439 66.2473 48.9413 66.91C49.5479 67.5633 49.8513 68.4827 49.8513 69.668L49.8373 69.808H44.4473C44.4659 70.48 44.6899 71.0213 45.1193 71.432C45.5486 71.8427 46.0619 72.048 46.6593 72.048C47.4806 72.048 48.1246 71.6373 48.5913 70.816L49.7393 71.376C49.4313 71.9547 49.0019 72.4073 48.4513 72.734C47.9099 73.0607 47.2939 73.224 46.6033 73.224ZM44.5453 68.744H48.4793C48.4419 68.268 48.2459 67.876 47.8913 67.568C47.5459 67.2507 47.0793 67.092 46.4913 67.092C46.0059 67.092 45.5859 67.2413 45.2313 67.54C44.8859 67.8387 44.6573 68.24 44.5453 68.744ZM54.1775 72.048C54.8121 72.048 55.3301 71.8193 55.7315 71.362C56.1515 70.9047 56.3615 70.3073 56.3615 69.57C56.3615 68.8513 56.1515 68.2587 55.7315 67.792C55.3208 67.3253 54.8028 67.092 54.1775 67.092C53.5615 67.092 53.0435 67.3253 52.6235 67.792C52.2035 68.2587 51.9935 68.8513 51.9935 69.57C51.9935 70.298 52.2035 70.8907 52.6235 71.348C53.0435 71.8147 53.5615 72.048 54.1775 72.048ZM53.9675 73.224C53.0715 73.224 52.3015 72.8693 51.6575 72.16C51.0228 71.4413 50.7055 70.578 50.7055 69.57C50.7055 68.562 51.0228 67.6987 51.6575 66.98C52.3015 66.2707 53.0715 65.916 53.9675 65.916C54.4715 65.916 54.9288 66.0233 55.3395 66.238C55.7595 66.4527 56.0815 66.7373 56.3055 67.092H56.3615L56.3055 66.14V62.976H57.5935V73H56.3615V72.048H56.3055C56.0815 72.4027 55.7595 72.6873 55.3395 72.902C54.9288 73.1167 54.4715 73.224 53.9675 73.224ZM60.8299 63.774C60.8299 64.026 60.7412 64.2407 60.5639 64.418C60.3865 64.5953 60.1719 64.684 59.9199 64.684C59.6679 64.684 59.4532 64.5953 59.2759 64.418C59.0985 64.2407 59.0099 64.026 59.0099 63.774C59.0099 63.522 59.0985 63.3073 59.2759 63.13C59.4532 62.9527 59.6679 62.864 59.9199 62.864C60.1719 62.864 60.3865 62.9527 60.5639 63.13C60.7412 63.3073 60.8299 63.522 60.8299 63.774ZM60.5639 66.14V73H59.2759V66.14H60.5639ZM29.3831 83.976H31.0491V84.032L27.3251 88.33L31.3011 93.944V94H29.7191L26.4571 89.324L24.9171 91.102V94H23.6291V83.976H24.9171V89.142H24.9731L29.3831 83.976ZM32.9154 91.9C32.9154 92.236 33.0554 92.516 33.3354 92.74C33.6247 92.964 33.9607 93.076 34.3434 93.076C34.8847 93.076 35.3654 92.8753 35.7854 92.474C36.2147 92.0727 36.4294 91.6013 36.4294 91.06C36.028 90.7427 35.468 90.584 34.7494 90.584C34.2267 90.584 33.788 90.71 33.4334 90.962C33.088 91.214 32.9154 91.5267 32.9154 91.9ZM34.5814 86.916C35.5334 86.916 36.2847 87.1727 36.8354 87.686C37.386 88.19 37.6614 88.8853 37.6614 89.772V94H36.4294V93.048H36.3734C35.8414 93.832 35.132 94.224 34.2454 94.224C33.4894 94.224 32.8547 94 32.3414 93.552C31.8374 93.104 31.5854 92.544 31.5854 91.872C31.5854 91.1627 31.8514 90.598 32.3834 90.178C32.9247 89.758 33.6434 89.548 34.5394 89.548C35.3047 89.548 35.9347 89.688 36.4294 89.968V89.674C36.4294 89.226 36.252 88.848 35.8974 88.54C35.5427 88.2227 35.1274 88.064 34.6514 88.064C33.9327 88.064 33.3634 88.3673 32.9434 88.974L31.8094 88.26C32.4347 87.364 33.3587 86.916 34.5814 86.916ZM47.1501 94.112C46.5901 94.112 46.1234 93.9393 45.7501 93.594C45.3861 93.2487 45.1994 92.768 45.1901 92.152V88.316H43.9861V87.14H45.1901V85.04H46.4781V87.14H48.1581V88.316H46.4781V91.732C46.4781 92.1893 46.5667 92.502 46.7441 92.67C46.9214 92.8287 47.1221 92.908 47.3461 92.908C47.4487 92.908 47.5467 92.8987 47.6401 92.88C47.7427 92.852 47.8361 92.8193 47.9201 92.782L48.3261 93.93C47.9901 94.0513 47.5981 94.112 47.1501 94.112ZM39.1141 87.14H40.3461V88.26H40.4021C40.7847 87.3827 41.5734 86.944 42.7681 86.944L43.0341 86.972V88.316L42.4601 88.26C41.8627 88.26 41.3681 88.4467 40.9761 88.82C40.5934 89.184 40.4021 89.6507 40.4021 90.22V94H39.1141V87.14ZM50.8637 87.14V94H49.5757V87.14H50.8637ZM57.282 84.774C57.282 85.026 57.1934 85.2407 57.016 85.418C56.8387 85.5953 56.624 85.684 56.372 85.684C56.12 85.684 55.9054 85.5953 55.728 85.418C55.5507 85.2407 55.462 85.026 55.462 84.774C55.462 84.522 55.5507 84.3073 55.728 84.13C55.9054 83.9527 56.12 83.864 56.372 83.864C56.624 83.864 56.8387 83.9527 57.016 84.13C57.1934 84.3073 57.282 84.522 57.282 84.774ZM57.016 87.14V94H55.728V87.14H57.016ZM59.9802 83.976V94H58.6922V83.976H59.9802ZM64.5613 94.224C63.5533 94.224 62.7226 93.8787 62.0693 93.188C61.4159 92.4973 61.0893 91.6247 61.0893 90.57C61.0893 89.5247 61.4066 88.6567 62.0413 87.966C62.6759 87.266 63.4879 86.916 64.4773 86.916C65.4946 86.916 66.3019 87.2473 66.8993 87.91C67.5059 88.5633 67.8093 89.4827 67.8093 90.668L67.7953 90.808H62.4053C62.4239 91.48 62.6479 92.0213 63.0773 92.432C63.5066 92.8427 64.0199 93.048 64.6173 93.048C65.4386 93.048 66.0826 92.6373 66.5493 91.816L67.6973 92.376C67.3893 92.9547 66.9599 93.4073 66.4093 93.734C65.8679 94.0607 65.2519 94.224 64.5613 94.224ZM62.5033 89.744H66.4373C66.3999 89.268 66.2039 88.876 65.8493 88.568C65.5039 88.2507 65.0373 88.092 64.4493 88.092C63.9639 88.092 63.5439 88.2413 63.1893 88.54C62.8439 88.8387 62.6153 89.24 62.5033 89.744Z" fill="#101010"/>
</g>
<defs>
<filter id="filter0_d_1_212" x="0.537109" y="0" width="89.75" height="112" filterUnits="userSpaceOnUse" color-interpolation-filters="sRGB">
<feFlood flood-opacity="0" result="BackgroundImageFix"/>
<feColorMatrix in="SourceAlpha" type="matrix" values="0 0 0 0 0 0 0 0 0 0 0 0 0 0 0 0 0 0 127 0" result="hardAlpha"/>
<feOffset dy="1"/>
<feGaussianBlur stdDeviation="4"/>
<feComposite in2="hardAlpha" operator="out"/>
<feColorMatrix type="matrix" values="0 0 0 0 0 0 0 0 0 0 0 0 0 0 0 0 0 0 0.16 0"/>
<feBlend mode="normal" in2="BackgroundImageFix" result="effect1_dropShadow_1_212"/>
<feBlend mode="normal" in="SourceGraphic" in2="effect1_dropShadow_1_212" result="shape"/>
</filter>
</defs>
</svg>
