<svg width="91" height="112" viewBox="0 0 91 112" fill="none" xmlns="http://www.w3.org/2000/svg">
<g filter="url(#filter0_d_1_218)">
<path d="M8.28711 15C8.28711 10.5817 11.8688 7 16.2871 7H74.0371C78.4554 7 82.0371 10.5817 82.0371 15V55H8.28711V15Z" fill="#FF671D"/>
<path fill-rule="evenodd" clip-rule="evenodd" d="M35.3132 21.1491H55.0164C55.6678 21.1527 56.2915 21.4134 56.7516 21.8745C57.2117 22.3357 57.4711 22.9599 57.4732 23.6113V38.3887C57.4711 39.041 57.211 39.6661 56.7497 40.1274C56.2884 40.5887 55.6633 40.8488 55.011 40.8509H35.3132C34.6609 40.8488 34.0358 40.5887 33.5745 40.1274C33.1132 39.6661 32.8531 39.041 32.851 38.3887V23.6113C32.8531 22.959 33.1132 22.3339 33.5745 21.8726C34.0358 21.4113 34.6609 21.1512 35.3132 21.1491V21.1491Z" stroke="white" stroke-width="2" stroke-linecap="round" stroke-linejoin="round"/>
<path d="M57.4732 23.6113L45.1648 32.2318L32.851 23.6113" stroke="white" stroke-width="2" stroke-linecap="round" stroke-linejoin="round"/>
<path d="M8.28711 55H82.0371V95C82.0371 99.4183 78.4554 103 74.0371 103H16.2871C11.8688 103 8.28711 99.4183 8.28711 95V55Z" fill="white"/>
<path d="M32.9635 62.976V64.208H28.3995V67.386H32.5155V68.59H28.3995V71.768H32.9635V73H27.1115V62.976H32.9635ZM38.9554 69.192H34.4754V68.128H38.9554V69.192ZM42.0304 73H40.7424V62.976H42.0304L45.5164 69.08H45.5724L49.0584 62.976H50.3464V73H49.0584V67.05L49.1144 65.37H49.0584L45.9224 70.872H45.1664L42.0304 65.37H41.9744L42.0304 67.05V73ZM52.8724 70.9C52.8724 71.236 53.0124 71.516 53.2924 71.74C53.5817 71.964 53.9177 72.076 54.3004 72.076C54.8417 72.076 55.3224 71.8753 55.7424 71.474C56.1717 71.0727 56.3864 70.6013 56.3864 70.06C55.9851 69.7427 55.4251 69.584 54.7064 69.584C54.1837 69.584 53.7451 69.71 53.3904 69.962C53.0451 70.214 52.8724 70.5267 52.8724 70.9ZM54.5384 65.916C55.4904 65.916 56.2417 66.1727 56.7924 66.686C57.3431 67.19 57.6184 67.8853 57.6184 68.772V73H56.3864V72.048H56.3304C55.7984 72.832 55.0891 73.224 54.2024 73.224C53.4464 73.224 52.8117 73 52.2984 72.552C51.7944 72.104 51.5424 71.544 51.5424 70.872C51.5424 70.1627 51.8084 69.598 52.3404 69.178C52.8817 68.758 53.6004 68.548 54.4964 68.548C55.2617 68.548 55.8917 68.688 56.3864 68.968V68.674C56.3864 68.226 56.2091 67.848 55.8544 67.54C55.4997 67.2227 55.0844 67.064 54.6084 67.064C53.8897 67.064 53.3204 67.3673 52.9004 67.974L51.7664 67.26C52.3917 66.364 53.3157 65.916 54.5384 65.916ZM60.7371 63.774C60.7371 64.026 60.6484 64.2407 60.4711 64.418C60.2938 64.5953 60.0791 64.684 59.8271 64.684C59.5751 64.684 59.3604 64.5953 59.1831 64.418C59.0058 64.2407 58.9171 64.026 58.9171 63.774C58.9171 63.522 59.0058 63.3073 59.1831 63.13C59.3604 62.9527 59.5751 62.864 59.8271 62.864C60.0791 62.864 60.2938 62.9527 60.4711 63.13C60.6484 63.3073 60.7371 63.522 60.7371 63.774ZM60.4711 66.14V73H59.1831V66.14H60.4711ZM63.4353 62.976V73H62.1473V62.976H63.4353ZM40.9266 84.774C40.9266 85.026 40.8379 85.2407 40.6606 85.418C40.4832 85.5953 40.2686 85.684 40.0166 85.684C39.7646 85.684 39.5499 85.5953 39.3726 85.418C39.1952 85.2407 39.1066 85.026 39.1066 84.774C39.1066 84.522 39.1952 84.3073 39.3726 84.13C39.5499 83.9527 39.7646 83.864 40.0166 83.864C40.2686 83.864 40.4832 83.9527 40.6606 84.13C40.8379 84.3073 40.9266 84.522 40.9266 84.774ZM40.6606 87.14V94H39.3726V87.14H40.6606ZM43.6247 83.976V94H42.3367V83.976H43.6247ZM48.2058 94.224C47.1978 94.224 46.3671 93.8787 45.7138 93.188C45.0605 92.4973 44.7338 91.6247 44.7338 90.57C44.7338 89.5247 45.0511 88.6567 45.6858 87.966C46.3205 87.266 47.1325 86.916 48.1218 86.916C49.1391 86.916 49.9465 87.2473 50.5438 87.91C51.1505 88.5633 51.4538 89.4827 51.4538 90.668L51.4398 90.808H46.0498C46.0685 91.48 46.2925 92.0213 46.7218 92.432C47.1511 92.8427 47.6645 93.048 48.2618 93.048C49.0831 93.048 49.7271 92.6373 50.1938 91.816L51.3418 92.376C51.0338 92.9547 50.6045 93.4073 50.0538 93.734C49.5125 94.0607 48.8965 94.224 48.2058 94.224ZM46.1478 89.744H50.0818C50.0445 89.268 49.8485 88.876 49.4938 88.568C49.1485 88.2507 48.6818 88.092 48.0938 88.092C47.6085 88.092 47.1885 88.2413 46.8338 88.54C46.4885 88.8387 46.2598 89.24 46.1478 89.744Z" fill="#101010"/>
</g>
<defs>
<filter id="filter0_d_1_218" x="0.287109" y="0" width="89.75" height="112" filterUnits="userSpaceOnUse" color-interpolation-filters="sRGB">
<feFlood flood-opacity="0" result="BackgroundImageFix"/>
<feColorMatrix in="SourceAlpha" type="matrix" values="0 0 0 0 0 0 0 0 0 0 0 0 0 0 0 0 0 0 127 0" result="hardAlpha"/>
<feOffset dy="1"/>
<feGaussianBlur stdDeviation="4"/>
<feComposite in2="hardAlpha" operator="out"/>
<feColorMatrix type="matrix" values="0 0 0 0 0 0 0 0 0 0 0 0 0 0 0 0 0 0 0.16 0"/>
<feBlend mode="normal" in2="BackgroundImageFix" result="effect1_dropShadow_1_218"/>
<feBlend mode="normal" in="SourceGraphic" in2="effect1_dropShadow_1_218" result="shape"/>
</filter>
</defs>
</svg>
