<svg width="91" height="112" viewBox="0 0 91 112" fill="none" xmlns="http://www.w3.org/2000/svg">
<g opacity="0.6" filter="url(#filter0_d_1_234)">
<path d="M8.78711 15C8.78711 10.5817 12.3688 7 16.7871 7H74.5371C78.9554 7 82.5371 10.5817 82.5371 15V55H8.78711V15Z" fill="#FF671D"/>
<g clip-path="url(#clip0_1_234)">
<path d="M42.2824 17.5001H34.5726C34.2552 17.4969 33.9403 17.5571 33.6464 17.6771C33.3525 17.7971 33.0856 17.9745 32.8611 18.199C32.6366 18.4235 32.4592 18.6905 32.3392 18.9843C32.2192 19.2782 32.159 19.5931 32.1621 19.9105V27.6203C32.159 27.9377 32.2192 28.2526 32.3392 28.5465C32.4592 28.8403 32.6366 29.1073 32.8611 29.3318C33.0856 29.5563 33.3525 29.7337 33.6464 29.8537C33.9403 29.9737 34.2552 30.0339 34.5726 30.0307H42.2824C42.6002 30.0346 42.9157 29.9749 43.2102 29.8552C43.5047 29.7355 43.7723 29.5582 43.9973 29.3337C44.2223 29.1091 44.4002 28.8419 44.5206 28.5477C44.6409 28.2535 44.7013 27.9382 44.6981 27.6203V19.9105C44.7013 19.5926 44.6409 19.2773 44.5206 18.9831C44.4002 18.6889 44.2223 18.4217 43.9973 18.1971C43.7723 17.9726 43.5047 17.7953 43.2102 17.6756C42.9157 17.5559 42.6002 17.4962 42.2824 17.5001V17.5001ZM42.7647 27.6203C42.7686 27.6846 42.7587 27.7491 42.7358 27.8093C42.7129 27.8696 42.6775 27.9243 42.632 27.9699C42.5864 28.0154 42.5317 28.0508 42.4714 28.0737C42.4111 28.0966 42.3467 28.1065 42.2824 28.1026H34.5726C34.5082 28.1065 34.4438 28.0966 34.3836 28.0737C34.3233 28.0508 34.2686 28.0154 34.223 27.9699C34.1774 27.9243 34.142 27.8696 34.1191 27.8093C34.0963 27.7491 34.0864 27.6846 34.0902 27.6203V19.9105C34.0864 19.8462 34.0963 19.7817 34.1191 19.7215C34.142 19.6612 34.1774 19.6065 34.223 19.5609C34.2686 19.5154 34.3233 19.48 34.3836 19.4571C34.4438 19.4342 34.5082 19.4243 34.5726 19.4282H42.2824C42.3467 19.4243 42.4111 19.4342 42.4714 19.4571C42.5317 19.48 42.5864 19.5154 42.632 19.5609C42.6775 19.6065 42.7129 19.6612 42.7358 19.7215C42.7587 19.7817 42.7686 19.8462 42.7647 19.9105V27.6203Z" fill="white"/>
<path d="M39.8771 21.3575H36.9856C36.8569 21.3495 36.728 21.3689 36.6073 21.4144C36.4866 21.4599 36.377 21.5306 36.2857 21.6216C36.1943 21.7127 36.1234 21.8221 36.0775 21.9427C36.0317 22.0632 36.0119 22.1922 36.0196 22.3209V25.2124C36.0118 25.3411 36.0313 25.4701 36.077 25.5907C36.1227 25.7113 36.1935 25.8208 36.2847 25.912C36.3759 26.0032 36.4854 26.074 36.606 26.1197C36.7267 26.1654 36.8556 26.185 36.9843 26.1771H39.8758C40.0046 26.185 40.1335 26.1654 40.2541 26.1197C40.3747 26.074 40.4843 26.0032 40.5755 25.912C40.6667 25.8208 40.7375 25.7113 40.7832 25.5907C40.8289 25.4701 40.8484 25.3411 40.8405 25.2124V22.3209C40.8482 22.1924 40.8285 22.0637 40.7828 21.9434C40.7371 21.823 40.6664 21.7137 40.5754 21.6227C40.4843 21.5316 40.375 21.4609 40.2547 21.4152C40.1343 21.3695 40.0057 21.3499 39.8771 21.3575ZM38.9111 24.2503H37.9477V23.283H38.9111V24.2503ZM56.7517 17.5H49.0314C48.7144 17.4975 48.4001 17.5582 48.1068 17.6786C47.8135 17.7989 47.5472 17.9765 47.3233 18.2008C47.0994 18.4252 46.9224 18.692 46.8027 18.9855C46.683 19.279 46.623 19.5935 46.6262 19.9105V27.6202C46.6223 27.9376 46.6818 28.2526 46.8012 28.5468C46.9206 28.8409 47.0974 29.1083 47.3214 29.3333C47.5454 29.5582 47.812 29.7362 48.1056 29.8569C48.3992 29.9775 48.7139 30.0384 49.0314 30.0359H56.7451C57.0635 30.04 57.3795 29.9803 57.6745 29.8603C57.9695 29.7404 58.2375 29.5626 58.4627 29.3375C58.688 29.1124 58.8659 28.8445 58.986 28.5496C59.1061 28.2546 59.166 27.9387 59.1621 27.6202V19.9105C59.1653 19.593 59.1051 19.2782 58.9851 18.9843C58.865 18.6904 58.6876 18.4234 58.4632 18.199C58.2387 17.9745 57.9717 17.7971 57.6778 17.677C57.3839 17.557 57.0691 17.4968 56.7517 17.5ZM57.234 27.6202C57.2378 27.6846 57.228 27.749 57.2051 27.8093C57.1822 27.8695 57.1468 27.9242 57.1012 27.9698C57.0557 28.0154 57.0009 28.0508 56.9407 28.0737C56.8804 28.0966 56.816 28.1064 56.7517 28.1026H49.0314C48.967 28.1064 48.9026 28.0966 48.8423 28.0737C48.7821 28.0508 48.7274 28.0154 48.6818 27.9698C48.6362 27.9242 48.6008 27.8695 48.5779 27.8093C48.555 27.749 48.5452 27.6846 48.549 27.6202V19.9105C48.5452 19.8461 48.555 19.7817 48.5779 19.7214C48.6008 19.6612 48.6362 19.6064 48.6818 19.5609C48.7274 19.5153 48.7821 19.4799 48.8423 19.457C48.9026 19.4341 48.967 19.4243 49.0314 19.4281H56.7451C56.8094 19.4243 56.8738 19.4341 56.9341 19.457C56.9944 19.4799 57.0491 19.5153 57.0947 19.5609C57.1402 19.6064 57.1756 19.6612 57.1985 19.7214C57.2214 19.7817 57.2313 19.8461 57.2274 19.9105L57.234 27.6202Z" fill="white"/>
<path d="M54.3412 21.3575H51.4497C51.321 21.3497 51.192 21.3692 51.0714 21.4149C50.9508 21.4606 50.8413 21.5314 50.7501 21.6226C50.6589 21.7138 50.5881 21.8233 50.5424 21.944C50.4967 22.0646 50.4771 22.1935 50.485 22.3222V25.2137C50.4771 25.3425 50.4967 25.4714 50.5424 25.592C50.5881 25.7126 50.6589 25.8222 50.7501 25.9134C50.8413 26.0046 50.9508 26.0754 51.0714 26.1211C51.192 26.1668 51.321 26.1863 51.4497 26.1784H54.3412C54.4699 26.1863 54.5989 26.1668 54.7195 26.1211C54.8401 26.0754 54.9496 26.0046 55.0408 25.9134C55.132 25.8222 55.2028 25.7126 55.2485 25.592C55.2942 25.4714 55.3138 25.3425 55.3059 25.2137V22.3222C55.3138 22.1935 55.2942 22.0646 55.2485 21.944C55.2028 21.8233 55.132 21.7138 55.0408 21.6226C54.9496 21.5314 54.8401 21.4606 54.7195 21.4149C54.5989 21.3692 54.4699 21.3497 54.3412 21.3575V21.3575ZM53.3765 24.249H52.4118V23.2856H53.3765V24.249ZM32.1621 42.0896C32.159 42.407 32.2191 42.7218 32.3392 43.0157C32.4592 43.3096 32.6366 43.5766 32.8611 43.8011C33.0855 44.0255 33.3525 44.203 33.6464 44.323C33.9403 44.443 34.2551 44.5032 34.5726 44.5H42.2823C42.5998 44.5032 42.9146 44.443 43.2085 44.323C43.5024 44.203 43.7694 44.0255 43.9938 43.8011C44.2183 43.5766 44.3957 43.3096 44.5158 43.0157C44.6358 42.7218 44.696 42.407 44.6928 42.0896V34.3693C44.6953 34.0523 44.6346 33.738 44.5142 33.4447C44.3939 33.1514 44.2163 32.8851 43.992 32.6612C43.7676 32.4373 43.5008 32.2603 43.2073 32.1406C42.9138 32.0209 42.5993 31.9609 42.2823 31.9641H34.5726C34.2556 31.9609 33.9412 32.0209 33.6476 32.1406C33.3541 32.2603 33.0874 32.4373 32.863 32.6612C32.6386 32.8851 32.461 33.1514 32.3407 33.4447C32.2204 33.738 32.1597 34.0523 32.1621 34.3693V42.0896ZM34.0902 34.3693C34.0864 34.3049 34.0962 34.2405 34.1191 34.1802C34.142 34.12 34.1774 34.0653 34.223 34.0197C34.2686 33.9741 34.3233 33.9387 34.3835 33.9158C34.4438 33.8929 34.5082 33.8831 34.5726 33.8869H42.2823C42.3467 33.8831 42.4111 33.8929 42.4714 33.9158C42.5316 33.9387 42.5864 33.9741 42.6319 34.0197C42.6775 34.0653 42.7129 34.12 42.7358 34.1802C42.7587 34.2405 42.7685 34.3049 42.7647 34.3693V42.083C42.7685 42.1473 42.7587 42.2118 42.7358 42.272C42.7129 42.3323 42.6775 42.387 42.6319 42.4326C42.5864 42.4781 42.5316 42.5135 42.4714 42.5364C42.4111 42.5593 42.3467 42.5692 42.2823 42.5653H34.5726C34.5082 42.5692 34.4438 42.5593 34.3835 42.5364C34.3233 42.5135 34.2686 42.4781 34.223 42.4326C34.1774 42.387 34.142 42.3323 34.1191 42.272C34.0962 42.2118 34.0864 42.1473 34.0902 42.083V34.3693Z" fill="white"/>
<path d="M36.9843 40.6385H39.8758C40.0046 40.6464 40.1335 40.6268 40.2541 40.5811C40.3747 40.5355 40.4843 40.4647 40.5755 40.3735C40.6667 40.2823 40.7375 40.1727 40.7832 40.0521C40.8288 39.9315 40.8484 39.8026 40.8405 39.6738V36.7823C40.8484 36.6536 40.8288 36.5247 40.7832 36.404C40.7375 36.2834 40.6667 36.1739 40.5755 36.0827C40.4843 35.9915 40.3747 35.9207 40.2541 35.875C40.1335 35.8293 40.0046 35.8097 39.8758 35.8176H36.9843C36.8554 35.8097 36.7262 35.8293 36.6054 35.8752C36.4846 35.921 36.3749 35.9921 36.2837 36.0836C36.1924 36.1751 36.1217 36.2849 36.0762 36.4058C36.0306 36.5268 36.0114 36.656 36.0196 36.785V39.6765C36.0121 39.805 36.032 39.9336 36.0779 40.0539C36.1237 40.1742 36.1946 40.2834 36.2857 40.3743C36.3769 40.4652 36.4863 40.5358 36.6067 40.5813C36.7271 40.6269 36.8558 40.6464 36.9843 40.6385V40.6385ZM37.949 37.747H38.9111V38.7117H37.9477L37.949 37.747ZM56.7516 31.964H49.0314C48.7139 31.9609 48.3991 32.0211 48.1052 32.1411C47.8113 32.2611 47.5443 32.4385 47.3199 32.663C47.0954 32.8875 46.918 33.1545 46.7979 33.4483C46.6779 33.7422 46.6177 34.0571 46.6209 34.3745V42.0843C46.617 42.4021 46.6767 42.7176 46.7964 43.0121C46.9161 43.3066 47.0934 43.5742 47.318 43.7992C47.5425 44.0242 47.8097 44.2021 48.104 44.3225C48.3982 44.4428 48.7135 44.5032 49.0314 44.5H56.7451C57.0635 44.5041 57.3795 44.4443 57.6745 44.3244C57.9695 44.2045 58.2375 44.0267 58.4627 43.8016C58.688 43.5765 58.8659 43.3085 58.986 43.0136C59.1061 42.7187 59.166 42.4027 59.1621 42.0843V34.3745C59.1653 34.0571 59.1051 33.7422 58.9851 33.4483C58.865 33.1545 58.6876 32.8875 58.4631 32.663C58.2387 32.4385 57.9717 32.2611 57.6778 32.1411C57.3839 32.0211 57.0691 31.9609 56.7516 31.964ZM57.234 42.0843C57.2378 42.1486 57.228 42.213 57.2051 42.2733C57.1822 42.3336 57.1468 42.3883 57.1012 42.4339C57.0557 42.4794 57.0009 42.5148 56.9407 42.5377C56.8804 42.5606 56.816 42.5705 56.7516 42.5666H49.0314C48.967 42.5705 48.9026 42.5606 48.8423 42.5377C48.7821 42.5148 48.7274 42.4794 48.6818 42.4339C48.6362 42.3883 48.6008 42.3336 48.5779 42.2733C48.555 42.213 48.5452 42.1486 48.549 42.0843V34.3745C48.5452 34.3102 48.555 34.2457 48.5779 34.1855C48.6008 34.1252 48.6362 34.0705 48.6818 34.0249C48.7274 33.9793 48.7821 33.9439 48.8423 33.9211C48.9026 33.8982 48.967 33.8883 49.0314 33.8921H56.7451C56.8094 33.8883 56.8738 33.8982 56.9341 33.9211C56.9944 33.9439 57.0491 33.9793 57.0947 34.0249C57.1402 34.0705 57.1756 34.1252 57.1985 34.1855C57.2214 34.2457 57.2313 34.3102 57.2274 34.3745L57.234 42.0843Z" fill="white"/>
<path d="M54.3412 35.8216H51.4497C51.321 35.8137 51.192 35.8333 51.0714 35.879C50.9508 35.9247 50.8413 35.9955 50.7501 36.0867C50.6589 36.1779 50.5881 36.2874 50.5424 36.408C50.4967 36.5286 50.4771 36.6576 50.485 36.7863V39.6778C50.4771 39.8065 50.4967 39.9355 50.5424 40.0561C50.5881 40.1767 50.6589 40.2862 50.7501 40.3774C50.8413 40.4686 50.9508 40.5394 51.0714 40.5851C51.192 40.6308 51.321 40.6504 51.4497 40.6425H54.3412C54.4699 40.6504 54.5989 40.6308 54.7195 40.5851C54.8401 40.5394 54.9496 40.4686 55.0408 40.3774C55.132 40.2862 55.2028 40.1767 55.2485 40.0561C55.2942 39.9355 55.3138 39.8065 55.3059 39.6778V36.7863C55.3138 36.6576 55.2942 36.5286 55.2485 36.408C55.2028 36.2874 55.132 36.1779 55.0408 36.0867C54.9496 35.9955 54.8401 35.9247 54.7195 35.879C54.5989 35.8333 54.4699 35.8137 54.3412 35.8216V35.8216ZM53.3752 38.7131H52.4105V37.7484H53.3752V38.7131Z" fill="white"/>
</g>
<path d="M8.78711 55H82.5371V95C82.5371 99.4183 78.9554 103 74.5371 103H16.7871C12.3688 103 8.78711 99.4183 8.78711 95V55Z" fill="white"/>
<path d="M45.7202 73.014L44.7122 73.672L44.0262 72.65C43.2422 73.0327 42.4396 73.224 41.6182 73.224C40.1622 73.224 38.9396 72.72 37.9502 71.712C36.9609 70.7133 36.4662 69.472 36.4662 67.988C36.4662 66.504 36.9609 65.2627 37.9502 64.264C38.9396 63.256 40.1622 62.752 41.6182 62.752C43.0742 62.752 44.2969 63.2607 45.2862 64.278C46.2756 65.2767 46.7702 66.5133 46.7702 67.988C46.7702 68.772 46.6162 69.5047 46.3082 70.186C46.0096 70.8673 45.5802 71.46 45.0202 71.964L45.7202 73.014ZM41.6182 71.992C42.2156 71.992 42.7802 71.8613 43.3122 71.6L42.1362 69.836L43.1442 69.15L44.3062 70.9C45.0716 70.1627 45.4542 69.192 45.4542 67.988C45.4542 66.8213 45.0856 65.8647 44.3482 65.118C43.6202 64.362 42.7102 63.984 41.6182 63.984C40.5262 63.984 39.6116 64.362 38.8742 65.118C38.1462 65.874 37.7822 66.8307 37.7822 67.988C37.7822 69.1453 38.1462 70.102 38.8742 70.858C39.6116 71.614 40.5262 71.992 41.6182 71.992ZM49.5782 64.208V67.736H51.6502C52.1729 67.736 52.6162 67.568 52.9802 67.232C53.3442 66.8867 53.5262 66.462 53.5262 65.958C53.5262 65.4913 53.3536 65.0853 53.0082 64.74C52.6722 64.3853 52.2476 64.208 51.7342 64.208H49.5782ZM49.5782 73H48.2902V62.976H51.7062C52.5742 62.976 53.3116 63.2653 53.9182 63.844C54.5342 64.4133 54.8422 65.118 54.8422 65.958C54.8422 66.6487 54.6136 67.2647 54.1562 67.806C53.7082 68.338 53.1389 68.6787 52.4482 68.828L52.4202 68.87L55.2342 72.944V73H53.7082L51.0062 68.94H49.5782V73ZM41.4266 84.774C41.4266 85.026 41.3379 85.2407 41.1606 85.418C40.9832 85.5953 40.7686 85.684 40.5166 85.684C40.2646 85.684 40.0499 85.5953 39.8726 85.418C39.6952 85.2407 39.6066 85.026 39.6066 84.774C39.6066 84.522 39.6952 84.3073 39.8726 84.13C40.0499 83.9527 40.2646 83.864 40.5166 83.864C40.7686 83.864 40.9832 83.9527 41.1606 84.13C41.3379 84.3073 41.4266 84.522 41.4266 84.774ZM41.1606 87.14V94H39.8726V87.14H41.1606ZM44.1247 83.976V94H42.8367V83.976H44.1247ZM48.7058 94.224C47.6978 94.224 46.8671 93.8787 46.2138 93.188C45.5605 92.4973 45.2338 91.6247 45.2338 90.57C45.2338 89.5247 45.5511 88.6567 46.1858 87.966C46.8205 87.266 47.6325 86.916 48.6218 86.916C49.6391 86.916 50.4465 87.2473 51.0438 87.91C51.6505 88.5633 51.9538 89.4827 51.9538 90.668L51.9398 90.808H46.5498C46.5685 91.48 46.7925 92.0213 47.2218 92.432C47.6511 92.8427 48.1645 93.048 48.7618 93.048C49.5831 93.048 50.2271 92.6373 50.6938 91.816L51.8418 92.376C51.5338 92.9547 51.1045 93.4073 50.5538 93.734C50.0125 94.0607 49.3965 94.224 48.7058 94.224ZM46.6478 89.744H50.5818C50.5445 89.268 50.3485 88.876 49.9938 88.568C49.6485 88.2507 49.1818 88.092 48.5938 88.092C48.1085 88.092 47.6885 88.2413 47.3338 88.54C46.9885 88.8387 46.7598 89.24 46.6478 89.744Z" fill="#6F6F6F"/>
</g>
<defs>
<filter id="filter0_d_1_234" x="0.787109" y="0" width="89.75" height="112" filterUnits="userSpaceOnUse" color-interpolation-filters="sRGB">
<feFlood flood-opacity="0" result="BackgroundImageFix"/>
<feColorMatrix in="SourceAlpha" type="matrix" values="0 0 0 0 0 0 0 0 0 0 0 0 0 0 0 0 0 0 127 0" result="hardAlpha"/>
<feOffset dy="1"/>
<feGaussianBlur stdDeviation="4"/>
<feComposite in2="hardAlpha" operator="out"/>
<feColorMatrix type="matrix" values="0 0 0 0 0 0 0 0 0 0 0 0 0 0 0 0 0 0 0.16 0"/>
<feBlend mode="normal" in2="BackgroundImageFix" result="effect1_dropShadow_1_234"/>
<feBlend mode="normal" in="SourceGraphic" in2="effect1_dropShadow_1_234" result="shape"/>
</filter>
<clipPath id="clip0_1_234">
<rect width="27" height="27" fill="white" transform="translate(32.1621 17.5)"/>
</clipPath>
</defs>
</svg>
