<svg width="90" height="112" viewBox="0 0 90 112" fill="none" xmlns="http://www.w3.org/2000/svg">
<g opacity="0.6" filter="url(#filter0_d_1_228)">
<path d="M8.03711 15C8.03711 10.5817 11.6188 7 16.0371 7H73.7871C78.2054 7 81.7871 10.5817 81.7871 15V55H8.03711V15Z" fill="#FF671D"/>
<path d="M55.7125 17.5H34.1117C33.3964 17.5021 32.7109 17.7872 32.2051 18.293C31.6993 18.7988 31.4142 19.4843 31.4121 20.1996V44.5L36.8126 39.0995H55.7125C56.4278 39.0974 57.1133 38.8123 57.6191 38.3065C58.1249 37.8007 58.41 37.1152 58.4121 36.3999V20.1996C58.41 19.4843 58.1249 18.7988 57.6191 18.293C57.1133 17.7872 56.4278 17.5021 55.7125 17.5V17.5ZM55.7125 36.3999H35.6915L34.1143 37.977V20.1996H55.7125V36.3999ZM38.1624 26.9499H40.862V29.6495H38.1624V26.9499ZM48.9622 26.9499H51.6618V29.6495H48.9622V26.9499ZM43.5617 26.9499H46.2639V29.6495H43.563L43.5617 26.9499Z" fill="white"/>
<path d="M8.03711 55H81.7871V95C81.7871 99.4183 78.2054 103 73.7871 103H16.0371C11.6188 103 8.03711 99.4183 8.03711 95V55Z" fill="white"/>
<path d="M38.5593 70.326C38.5593 71.2033 38.2373 71.908 37.5933 72.44C36.9399 72.9627 36.1466 73.224 35.2133 73.224C34.3826 73.224 33.6499 72.9813 33.0153 72.496C32.3806 72.0107 31.9419 71.348 31.6993 70.508L32.9313 70.004C33.0153 70.3027 33.1319 70.5733 33.2813 70.816C33.4306 71.0587 33.6033 71.2687 33.7993 71.446C34.0046 71.614 34.2286 71.7493 34.4713 71.852C34.7139 71.9453 34.9706 71.992 35.2413 71.992C35.8293 71.992 36.3099 71.8427 36.6833 71.544C37.0566 71.236 37.2433 70.83 37.2433 70.326C37.2433 69.906 37.0893 69.5467 36.7813 69.248C36.4919 68.9587 35.9506 68.6787 35.1573 68.408C34.3546 68.1187 33.8553 67.9227 33.6593 67.82C32.5953 67.2787 32.0633 66.4807 32.0633 65.426C32.0633 64.6887 32.3573 64.0587 32.9453 63.536C33.5426 63.0133 34.2753 62.752 35.1433 62.752C35.9086 62.752 36.5713 62.948 37.1313 63.34C37.6913 63.7227 38.0646 64.2033 38.2513 64.782L37.0473 65.286C36.9353 64.9127 36.7113 64.6047 36.3753 64.362C36.0486 64.11 35.6473 63.984 35.1713 63.984C34.6673 63.984 34.2426 64.124 33.8973 64.404C33.5519 64.6653 33.3793 65.006 33.3793 65.426C33.3793 65.7713 33.5146 66.07 33.7853 66.322C34.0839 66.574 34.7326 66.8727 35.7313 67.218C36.7486 67.5633 37.4719 67.988 37.9013 68.492C38.3399 68.9867 38.5593 69.598 38.5593 70.326ZM41.3976 73H40.1096V62.976H41.3976L44.8836 69.08H44.9396L48.4256 62.976H49.7136V73H48.4256V67.05L48.4816 65.37H48.4256L45.2896 70.872H44.5336L41.3976 65.37H41.3416L41.3976 67.05V73ZM57.9187 70.326C57.9187 71.2033 57.5967 71.908 56.9527 72.44C56.2993 72.9627 55.506 73.224 54.5727 73.224C53.742 73.224 53.0093 72.9813 52.3747 72.496C51.74 72.0107 51.3013 71.348 51.0587 70.508L52.2907 70.004C52.3747 70.3027 52.4913 70.5733 52.6407 70.816C52.79 71.0587 52.9627 71.2687 53.1587 71.446C53.364 71.614 53.588 71.7493 53.8307 71.852C54.0733 71.9453 54.33 71.992 54.6007 71.992C55.1887 71.992 55.6693 71.8427 56.0427 71.544C56.416 71.236 56.6027 70.83 56.6027 70.326C56.6027 69.906 56.4487 69.5467 56.1407 69.248C55.8513 68.9587 55.31 68.6787 54.5167 68.408C53.714 68.1187 53.2147 67.9227 53.0187 67.82C51.9547 67.2787 51.4227 66.4807 51.4227 65.426C51.4227 64.6887 51.7167 64.0587 52.3047 63.536C52.902 63.0133 53.6347 62.752 54.5027 62.752C55.268 62.752 55.9307 62.948 56.4907 63.34C57.0507 63.7227 57.424 64.2033 57.6107 64.782L56.4067 65.286C56.2947 64.9127 56.0707 64.6047 55.7347 64.362C55.408 64.11 55.0067 63.984 54.5307 63.984C54.0267 63.984 53.602 64.124 53.2567 64.404C52.9113 64.6653 52.7387 65.006 52.7387 65.426C52.7387 65.7713 52.874 66.07 53.1447 66.322C53.4433 66.574 54.092 66.8727 55.0907 67.218C56.108 67.5633 56.8313 67.988 57.2607 68.492C57.6993 68.9867 57.9187 69.598 57.9187 70.326ZM40.6766 84.774C40.6766 85.026 40.5879 85.2407 40.4106 85.418C40.2332 85.5953 40.0186 85.684 39.7666 85.684C39.5146 85.684 39.2999 85.5953 39.1226 85.418C38.9452 85.2407 38.8566 85.026 38.8566 84.774C38.8566 84.522 38.9452 84.3073 39.1226 84.13C39.2999 83.9527 39.5146 83.864 39.7666 83.864C40.0186 83.864 40.2332 83.9527 40.4106 84.13C40.5879 84.3073 40.6766 84.522 40.6766 84.774ZM40.4106 87.14V94H39.1226V87.14H40.4106ZM43.3747 83.976V94H42.0867V83.976H43.3747ZM47.9558 94.224C46.9478 94.224 46.1171 93.8787 45.4638 93.188C44.8105 92.4973 44.4838 91.6247 44.4838 90.57C44.4838 89.5247 44.8011 88.6567 45.4358 87.966C46.0705 87.266 46.8825 86.916 47.8718 86.916C48.8891 86.916 49.6965 87.2473 50.2938 87.91C50.9005 88.5633 51.2038 89.4827 51.2038 90.668L51.1898 90.808H45.7998C45.8185 91.48 46.0425 92.0213 46.4718 92.432C46.9011 92.8427 47.4145 93.048 48.0118 93.048C48.8331 93.048 49.4771 92.6373 49.9438 91.816L51.0918 92.376C50.7838 92.9547 50.3545 93.4073 49.8038 93.734C49.2625 94.0607 48.6465 94.224 47.9558 94.224ZM45.8978 89.744H49.8318C49.7945 89.268 49.5985 88.876 49.2438 88.568C48.8985 88.2507 48.4318 88.092 47.8438 88.092C47.3585 88.092 46.9385 88.2413 46.5838 88.54C46.2385 88.8387 46.0098 89.24 45.8978 89.744Z" fill="#6F6F6F"/>
</g>
<defs>
<filter id="filter0_d_1_228" x="0.0371094" y="0" width="89.75" height="112" filterUnits="userSpaceOnUse" color-interpolation-filters="sRGB">
<feFlood flood-opacity="0" result="BackgroundImageFix"/>
<feColorMatrix in="SourceAlpha" type="matrix" values="0 0 0 0 0 0 0 0 0 0 0 0 0 0 0 0 0 0 127 0" result="hardAlpha"/>
<feOffset dy="1"/>
<feGaussianBlur stdDeviation="4"/>
<feComposite in2="hardAlpha" operator="out"/>
<feColorMatrix type="matrix" values="0 0 0 0 0 0 0 0 0 0 0 0 0 0 0 0 0 0 0.16 0"/>
<feBlend mode="normal" in2="BackgroundImageFix" result="effect1_dropShadow_1_228"/>
<feBlend mode="normal" in="SourceGraphic" in2="effect1_dropShadow_1_228" result="shape"/>
</filter>
</defs>
</svg>
