<svg width="360" height="112" viewBox="0 0 360 112" fill="none" xmlns="http://www.w3.org/2000/svg">
<g filter="url(#filter0_d_1_211)">
<path d="M8.53711 15C8.53711 10.5817 12.1188 7 16.5371 7H74.2871C78.7054 7 82.2871 10.5817 82.2871 15V55H8.53711V15Z" fill="#FF671D"/>
<path d="M56.1982 20.2139H34.626C34.2722 20.2129 33.9217 20.2821 33.5949 20.4175C33.268 20.5528 32.9712 20.7516 32.7217 21.0024C32.4721 21.2532 32.2747 21.5509 32.141 21.8785C32.0073 22.206 31.9398 22.5568 31.9425 22.9106L31.9293 39.0895C31.928 39.4439 31.9969 39.7952 32.132 40.1229C32.2671 40.4507 32.4657 40.7485 32.7163 40.9991C32.967 41.2498 33.2648 41.4484 33.5925 41.5834C33.9203 41.7185 34.2715 41.7874 34.626 41.7861H56.1982C56.5527 41.7874 56.904 41.7185 57.2317 41.5834C57.5595 41.4484 57.8572 41.2498 58.1079 40.9991C58.3586 40.7485 58.5572 40.4507 58.6922 40.1229C58.8273 39.7952 58.8962 39.4439 58.8949 39.0895V22.9106C58.8962 22.5561 58.8273 22.2048 58.6922 21.8771C58.5572 21.5493 58.3586 21.2516 58.1079 21.0009C57.8572 20.7502 57.5595 20.5517 57.2317 20.4166C56.904 20.2815 56.5527 20.2126 56.1982 20.2139ZM57.2317 39.1229C57.2317 39.6752 56.784 40.1229 56.2317 40.1229H34.5949C34.0426 40.1229 33.5949 39.6752 33.5949 39.1229V30.9994H57.2317V39.1229ZM57.2317 26.9377H33.5925L33.5944 22.878C33.5947 22.3259 34.0423 21.8785 34.5944 21.8785H56.2317C56.784 21.8785 57.2317 22.3262 57.2317 22.8785V26.9377Z" fill="white"/>
<path d="M8.53711 55H82.2871V95C82.2871 99.4183 78.7054 103 74.2871 103H16.5371C12.1188 103 8.53711 99.4183 8.53711 95V55Z" fill="white"/>
<path d="M36.1302 62.976H37.7962V63.032L34.0722 67.33L38.0482 72.944V73H36.4662L33.2042 68.324L31.6642 70.102V73H30.3762V62.976H31.6642V68.142H31.7202L36.1302 62.976ZM40.1492 73H38.8612V66.14H40.0932V67.26H40.1492C40.2798 66.896 40.5458 66.588 40.9472 66.336C41.3578 66.0747 41.7592 65.944 42.1512 65.944C42.5245 65.944 42.8418 66 43.1032 66.112L42.7112 67.358C42.5525 67.2927 42.3005 67.26 41.9552 67.26C41.4698 67.26 41.0452 67.456 40.6812 67.848C40.3265 68.24 40.1492 68.6973 40.1492 69.22V73ZM46.6033 73.224C45.5953 73.224 44.7646 72.8787 44.1113 72.188C43.4579 71.4973 43.1313 70.6247 43.1313 69.57C43.1313 68.5247 43.4486 67.6567 44.0833 66.966C44.7179 66.266 45.5299 65.916 46.5193 65.916C47.5366 65.916 48.3439 66.2473 48.9413 66.91C49.5479 67.5633 49.8513 68.4827 49.8513 69.668L49.8373 69.808H44.4473C44.4659 70.48 44.6899 71.0213 45.1193 71.432C45.5486 71.8427 46.0619 72.048 46.6593 72.048C47.4806 72.048 48.1246 71.6373 48.5913 70.816L49.7393 71.376C49.4313 71.9547 49.0019 72.4073 48.4513 72.734C47.9099 73.0607 47.2939 73.224 46.6033 73.224ZM44.5453 68.744H48.4793C48.4419 68.268 48.2459 67.876 47.8913 67.568C47.5459 67.2507 47.0793 67.092 46.4913 67.092C46.0059 67.092 45.5859 67.2413 45.2313 67.54C44.8859 67.8387 44.6573 68.24 44.5453 68.744ZM54.1775 72.048C54.8121 72.048 55.3301 71.8193 55.7315 71.362C56.1515 70.9047 56.3615 70.3073 56.3615 69.57C56.3615 68.8513 56.1515 68.2587 55.7315 67.792C55.3208 67.3253 54.8028 67.092 54.1775 67.092C53.5615 67.092 53.0435 67.3253 52.6235 67.792C52.2035 68.2587 51.9935 68.8513 51.9935 69.57C51.9935 70.298 52.2035 70.8907 52.6235 71.348C53.0435 71.8147 53.5615 72.048 54.1775 72.048ZM53.9675 73.224C53.0715 73.224 52.3015 72.8693 51.6575 72.16C51.0228 71.4413 50.7055 70.578 50.7055 69.57C50.7055 68.562 51.0228 67.6987 51.6575 66.98C52.3015 66.2707 53.0715 65.916 53.9675 65.916C54.4715 65.916 54.9288 66.0233 55.3395 66.238C55.7595 66.4527 56.0815 66.7373 56.3055 67.092H56.3615L56.3055 66.14V62.976H57.5935V73H56.3615V72.048H56.3055C56.0815 72.4027 55.7595 72.6873 55.3395 72.902C54.9288 73.1167 54.4715 73.224 53.9675 73.224ZM60.8299 63.774C60.8299 64.026 60.7412 64.2407 60.5639 64.418C60.3865 64.5953 60.1719 64.684 59.9199 64.684C59.6679 64.684 59.4532 64.5953 59.2759 64.418C59.0985 64.2407 59.0099 64.026 59.0099 63.774C59.0099 63.522 59.0985 63.3073 59.2759 63.13C59.4532 62.9527 59.6679 62.864 59.9199 62.864C60.1719 62.864 60.3865 62.9527 60.5639 63.13C60.7412 63.3073 60.8299 63.522 60.8299 63.774ZM60.5639 66.14V73H59.2759V66.14H60.5639ZM29.3831 83.976H31.0491V84.032L27.3251 88.33L31.3011 93.944V94H29.7191L26.4571 89.324L24.9171 91.102V94H23.6291V83.976H24.9171V89.142H24.9731L29.3831 83.976ZM32.9154 91.9C32.9154 92.236 33.0554 92.516 33.3354 92.74C33.6247 92.964 33.9607 93.076 34.3434 93.076C34.8847 93.076 35.3654 92.8753 35.7854 92.474C36.2147 92.0727 36.4294 91.6013 36.4294 91.06C36.028 90.7427 35.468 90.584 34.7494 90.584C34.2267 90.584 33.788 90.71 33.4334 90.962C33.088 91.214 32.9154 91.5267 32.9154 91.9ZM34.5814 86.916C35.5334 86.916 36.2847 87.1727 36.8354 87.686C37.386 88.19 37.6614 88.8853 37.6614 89.772V94H36.4294V93.048H36.3734C35.8414 93.832 35.132 94.224 34.2454 94.224C33.4894 94.224 32.8547 94 32.3414 93.552C31.8374 93.104 31.5854 92.544 31.5854 91.872C31.5854 91.1627 31.8514 90.598 32.3834 90.178C32.9247 89.758 33.6434 89.548 34.5394 89.548C35.3047 89.548 35.9347 89.688 36.4294 89.968V89.674C36.4294 89.226 36.252 88.848 35.8974 88.54C35.5427 88.2227 35.1274 88.064 34.6514 88.064C33.9327 88.064 33.3634 88.3673 32.9434 88.974L31.8094 88.26C32.4347 87.364 33.3587 86.916 34.5814 86.916ZM47.1501 94.112C46.5901 94.112 46.1234 93.9393 45.7501 93.594C45.3861 93.2487 45.1994 92.768 45.1901 92.152V88.316H43.9861V87.14H45.1901V85.04H46.4781V87.14H48.1581V88.316H46.4781V91.732C46.4781 92.1893 46.5667 92.502 46.7441 92.67C46.9214 92.8287 47.1221 92.908 47.3461 92.908C47.4487 92.908 47.5467 92.8987 47.6401 92.88C47.7427 92.852 47.8361 92.8193 47.9201 92.782L48.3261 93.93C47.9901 94.0513 47.5981 94.112 47.1501 94.112ZM39.1141 87.14H40.3461V88.26H40.4021C40.7847 87.3827 41.5734 86.944 42.7681 86.944L43.0341 86.972V88.316L42.4601 88.26C41.8627 88.26 41.3681 88.4467 40.9761 88.82C40.5934 89.184 40.4021 89.6507 40.4021 90.22V94H39.1141V87.14ZM50.8637 87.14V94H49.5757V87.14H50.8637ZM57.282 84.774C57.282 85.026 57.1934 85.2407 57.016 85.418C56.8387 85.5953 56.624 85.684 56.372 85.684C56.12 85.684 55.9054 85.5953 55.728 85.418C55.5507 85.2407 55.462 85.026 55.462 84.774C55.462 84.522 55.5507 84.3073 55.728 84.13C55.9054 83.9527 56.12 83.864 56.372 83.864C56.624 83.864 56.8387 83.9527 57.016 84.13C57.1934 84.3073 57.282 84.522 57.282 84.774ZM57.016 87.14V94H55.728V87.14H57.016ZM59.9802 83.976V94H58.6922V83.976H59.9802ZM64.5613 94.224C63.5533 94.224 62.7226 93.8787 62.0693 93.188C61.4159 92.4973 61.0893 91.6247 61.0893 90.57C61.0893 89.5247 61.4066 88.6567 62.0413 87.966C62.6759 87.266 63.4879 86.916 64.4773 86.916C65.4946 86.916 66.3019 87.2473 66.8993 87.91C67.5059 88.5633 67.8093 89.4827 67.8093 90.668L67.7953 90.808H62.4053C62.4239 91.48 62.6479 92.0213 63.0773 92.432C63.5066 92.8427 64.0199 93.048 64.6173 93.048C65.4386 93.048 66.0826 92.6373 66.5493 91.816L67.6973 92.376C67.3893 92.9547 66.9599 93.4073 66.4093 93.734C65.8679 94.0607 65.2519 94.224 64.5613 94.224ZM62.5033 89.744H66.4373C66.3999 89.268 66.2039 88.876 65.8493 88.568C65.5039 88.2507 65.0373 88.092 64.4493 88.092C63.9639 88.092 63.5439 88.2413 63.1893 88.54C62.8439 88.8387 62.6153 89.24 62.5033 89.744Z" fill="#101010"/>
</g>
<g filter="url(#filter1_d_1_211)">
<path d="M98.2871 15C98.2871 10.5817 101.869 7 106.287 7H164.037C168.455 7 172.037 10.5817 172.037 15V55H98.2871V15Z" fill="#FF671D"/>
<path fill-rule="evenodd" clip-rule="evenodd" d="M125.313 21.1491H145.016C145.668 21.1527 146.291 21.4134 146.752 21.8745C147.212 22.3357 147.471 22.9599 147.473 23.6113V38.3887C147.471 39.041 147.211 39.6661 146.75 40.1274C146.288 40.5887 145.663 40.8488 145.011 40.8509H125.313C124.661 40.8488 124.036 40.5887 123.575 40.1274C123.113 39.6661 122.853 39.041 122.851 38.3887V23.6113C122.853 22.959 123.113 22.3339 123.575 21.8726C124.036 21.4113 124.661 21.1512 125.313 21.1491V21.1491Z" stroke="white" stroke-width="2" stroke-linecap="round" stroke-linejoin="round"/>
<path d="M147.473 23.6113L135.165 32.2318L122.851 23.6113" stroke="white" stroke-width="2" stroke-linecap="round" stroke-linejoin="round"/>
<path d="M98.2871 55H172.037V95C172.037 99.4183 168.455 103 164.037 103H106.287C101.869 103 98.2871 99.4183 98.2871 95V55Z" fill="white"/>
<path d="M122.964 62.976V64.208H118.4V67.386H122.516V68.59H118.4V71.768H122.964V73H117.112V62.976H122.964ZM128.955 69.192H124.475V68.128H128.955V69.192ZM132.03 73H130.742V62.976H132.03L135.516 69.08H135.572L139.058 62.976H140.346V73H139.058V67.05L139.114 65.37H139.058L135.922 70.872H135.166L132.03 65.37H131.974L132.03 67.05V73ZM142.872 70.9C142.872 71.236 143.012 71.516 143.292 71.74C143.582 71.964 143.918 72.076 144.3 72.076C144.842 72.076 145.322 71.8753 145.742 71.474C146.172 71.0727 146.386 70.6013 146.386 70.06C145.985 69.7427 145.425 69.584 144.706 69.584C144.184 69.584 143.745 69.71 143.39 69.962C143.045 70.214 142.872 70.5267 142.872 70.9ZM144.538 65.916C145.49 65.916 146.242 66.1727 146.792 66.686C147.343 67.19 147.618 67.8853 147.618 68.772V73H146.386V72.048H146.33C145.798 72.832 145.089 73.224 144.202 73.224C143.446 73.224 142.812 73 142.298 72.552C141.794 72.104 141.542 71.544 141.542 70.872C141.542 70.1627 141.808 69.598 142.34 69.178C142.882 68.758 143.6 68.548 144.496 68.548C145.262 68.548 145.892 68.688 146.386 68.968V68.674C146.386 68.226 146.209 67.848 145.854 67.54C145.5 67.2227 145.084 67.064 144.608 67.064C143.89 67.064 143.32 67.3673 142.9 67.974L141.766 67.26C142.392 66.364 143.316 65.916 144.538 65.916ZM150.737 63.774C150.737 64.026 150.648 64.2407 150.471 64.418C150.294 64.5953 150.079 64.684 149.827 64.684C149.575 64.684 149.36 64.5953 149.183 64.418C149.006 64.2407 148.917 64.026 148.917 63.774C148.917 63.522 149.006 63.3073 149.183 63.13C149.36 62.9527 149.575 62.864 149.827 62.864C150.079 62.864 150.294 62.9527 150.471 63.13C150.648 63.3073 150.737 63.522 150.737 63.774ZM150.471 66.14V73H149.183V66.14H150.471ZM153.435 62.976V73H152.147V62.976H153.435ZM130.927 84.774C130.927 85.026 130.838 85.2407 130.661 85.418C130.483 85.5953 130.269 85.684 130.017 85.684C129.765 85.684 129.55 85.5953 129.373 85.418C129.195 85.2407 129.107 85.026 129.107 84.774C129.107 84.522 129.195 84.3073 129.373 84.13C129.55 83.9527 129.765 83.864 130.017 83.864C130.269 83.864 130.483 83.9527 130.661 84.13C130.838 84.3073 130.927 84.522 130.927 84.774ZM130.661 87.14V94H129.373V87.14H130.661ZM133.625 83.976V94H132.337V83.976H133.625ZM138.206 94.224C137.198 94.224 136.367 93.8787 135.714 93.188C135.06 92.4973 134.734 91.6247 134.734 90.57C134.734 89.5247 135.051 88.6567 135.686 87.966C136.32 87.266 137.132 86.916 138.122 86.916C139.139 86.916 139.946 87.2473 140.544 87.91C141.15 88.5633 141.454 89.4827 141.454 90.668L141.44 90.808H136.05C136.068 91.48 136.292 92.0213 136.722 92.432C137.151 92.8427 137.664 93.048 138.262 93.048C139.083 93.048 139.727 92.6373 140.194 91.816L141.342 92.376C141.034 92.9547 140.604 93.4073 140.054 93.734C139.512 94.0607 138.896 94.224 138.206 94.224ZM136.148 89.744H140.082C140.044 89.268 139.848 88.876 139.494 88.568C139.148 88.2507 138.682 88.092 138.094 88.092C137.608 88.092 137.188 88.2413 136.834 88.54C136.488 88.8387 136.26 89.24 136.148 89.744Z" fill="#101010"/>
</g>
<g opacity="0.6" filter="url(#filter2_d_1_211)">
<path d="M188.037 15C188.037 10.5817 191.619 7 196.037 7H253.787C258.205 7 261.787 10.5817 261.787 15V55H188.037V15Z" fill="#FF671D"/>
<path d="M235.713 17.5H214.112C213.396 17.5021 212.711 17.7872 212.205 18.293C211.699 18.7988 211.414 19.4843 211.412 20.1996V44.5L216.813 39.0995H235.713C236.428 39.0974 237.113 38.8123 237.619 38.3065C238.125 37.8007 238.41 37.1152 238.412 36.3999V20.1996C238.41 19.4843 238.125 18.7988 237.619 18.293C237.113 17.7872 236.428 17.5021 235.713 17.5ZM235.713 36.3999H215.692L214.114 37.977V20.1996H235.713V36.3999ZM218.162 26.9499H220.862V29.6495H218.162V26.9499ZM228.962 26.9499H231.662V29.6495H228.962V26.9499ZM223.562 26.9499H226.264V29.6495H223.563L223.562 26.9499Z" fill="white"/>
<path d="M188.037 55H261.787V95C261.787 99.4183 258.205 103 253.787 103H196.037C191.619 103 188.037 99.4183 188.037 95V55Z" fill="white"/>
<path d="M218.559 70.326C218.559 71.2033 218.237 71.908 217.593 72.44C216.94 72.9627 216.147 73.224 215.213 73.224C214.383 73.224 213.65 72.9813 213.015 72.496C212.381 72.0107 211.942 71.348 211.699 70.508L212.931 70.004C213.015 70.3027 213.132 70.5733 213.281 70.816C213.431 71.0587 213.603 71.2687 213.799 71.446C214.005 71.614 214.229 71.7493 214.471 71.852C214.714 71.9453 214.971 71.992 215.241 71.992C215.829 71.992 216.31 71.8427 216.683 71.544C217.057 71.236 217.243 70.83 217.243 70.326C217.243 69.906 217.089 69.5467 216.781 69.248C216.492 68.9587 215.951 68.6787 215.157 68.408C214.355 68.1187 213.855 67.9227 213.659 67.82C212.595 67.2787 212.063 66.4807 212.063 65.426C212.063 64.6887 212.357 64.0587 212.945 63.536C213.543 63.0133 214.275 62.752 215.143 62.752C215.909 62.752 216.571 62.948 217.131 63.34C217.691 63.7227 218.065 64.2033 218.251 64.782L217.047 65.286C216.935 64.9127 216.711 64.6047 216.375 64.362C216.049 64.11 215.647 63.984 215.171 63.984C214.667 63.984 214.243 64.124 213.897 64.404C213.552 64.6653 213.379 65.006 213.379 65.426C213.379 65.7713 213.515 66.07 213.785 66.322C214.084 66.574 214.733 66.8727 215.731 67.218C216.749 67.5633 217.472 67.988 217.901 68.492C218.34 68.9867 218.559 69.598 218.559 70.326ZM221.398 73H220.11V62.976H221.398L224.884 69.08H224.94L228.426 62.976H229.714V73H228.426V67.05L228.482 65.37H228.426L225.29 70.872H224.534L221.398 65.37H221.342L221.398 67.05V73ZM237.919 70.326C237.919 71.2033 237.597 71.908 236.953 72.44C236.299 72.9627 235.506 73.224 234.573 73.224C233.742 73.224 233.009 72.9813 232.375 72.496C231.74 72.0107 231.301 71.348 231.059 70.508L232.291 70.004C232.375 70.3027 232.491 70.5733 232.641 70.816C232.79 71.0587 232.963 71.2687 233.159 71.446C233.364 71.614 233.588 71.7493 233.831 71.852C234.073 71.9453 234.33 71.992 234.601 71.992C235.189 71.992 235.669 71.8427 236.043 71.544C236.416 71.236 236.603 70.83 236.603 70.326C236.603 69.906 236.449 69.5467 236.141 69.248C235.851 68.9587 235.31 68.6787 234.517 68.408C233.714 68.1187 233.215 67.9227 233.019 67.82C231.955 67.2787 231.423 66.4807 231.423 65.426C231.423 64.6887 231.717 64.0587 232.305 63.536C232.902 63.0133 233.635 62.752 234.503 62.752C235.268 62.752 235.931 62.948 236.491 63.34C237.051 63.7227 237.424 64.2033 237.611 64.782L236.407 65.286C236.295 64.9127 236.071 64.6047 235.735 64.362C235.408 64.11 235.007 63.984 234.531 63.984C234.027 63.984 233.602 64.124 233.257 64.404C232.911 64.6653 232.739 65.006 232.739 65.426C232.739 65.7713 232.874 66.07 233.145 66.322C233.443 66.574 234.092 66.8727 235.091 67.218C236.108 67.5633 236.831 67.988 237.261 68.492C237.699 68.9867 237.919 69.598 237.919 70.326ZM220.677 84.774C220.677 85.026 220.588 85.2407 220.411 85.418C220.233 85.5953 220.019 85.684 219.767 85.684C219.515 85.684 219.3 85.5953 219.123 85.418C218.945 85.2407 218.857 85.026 218.857 84.774C218.857 84.522 218.945 84.3073 219.123 84.13C219.3 83.9527 219.515 83.864 219.767 83.864C220.019 83.864 220.233 83.9527 220.411 84.13C220.588 84.3073 220.677 84.522 220.677 84.774ZM220.411 87.14V94H219.123V87.14H220.411ZM223.375 83.976V94H222.087V83.976H223.375ZM227.956 94.224C226.948 94.224 226.117 93.8787 225.464 93.188C224.81 92.4973 224.484 91.6247 224.484 90.57C224.484 89.5247 224.801 88.6567 225.436 87.966C226.07 87.266 226.882 86.916 227.872 86.916C228.889 86.916 229.696 87.2473 230.294 87.91C230.9 88.5633 231.204 89.4827 231.204 90.668L231.19 90.808H225.8C225.818 91.48 226.042 92.0213 226.472 92.432C226.901 92.8427 227.414 93.048 228.012 93.048C228.833 93.048 229.477 92.6373 229.944 91.816L231.092 92.376C230.784 92.9547 230.354 93.4073 229.804 93.734C229.262 94.0607 228.646 94.224 227.956 94.224ZM225.898 89.744H229.832C229.794 89.268 229.598 88.876 229.244 88.568C228.898 88.2507 228.432 88.092 227.844 88.092C227.358 88.092 226.938 88.2413 226.584 88.54C226.238 88.8387 226.01 89.24 225.898 89.744Z" fill="#6F6F6F"/>
</g>
<g opacity="0.6" filter="url(#filter3_d_1_211)">
<path d="M277.787 15C277.787 10.5817 281.369 7 285.787 7H343.537C347.955 7 351.537 10.5817 351.537 15V55H277.787V15Z" fill="#FF671D"/>
<g clip-path="url(#clip0_1_211)">
<path d="M311.282 17.5001H303.573C303.255 17.4969 302.94 17.5571 302.646 17.6771C302.353 17.7971 302.086 17.9745 301.861 18.199C301.637 18.4235 301.459 18.6905 301.339 18.9843C301.219 19.2782 301.159 19.5931 301.162 19.9105V27.6203C301.159 27.9377 301.219 28.2526 301.339 28.5465C301.459 28.8403 301.637 29.1073 301.861 29.3318C302.086 29.5563 302.353 29.7337 302.646 29.8537C302.94 29.9737 303.255 30.0339 303.573 30.0307H311.282C311.6 30.0346 311.916 29.9749 312.21 29.8552C312.505 29.7355 312.772 29.5582 312.997 29.3337C313.222 29.1091 313.4 28.8419 313.521 28.5477C313.641 28.2535 313.701 27.9382 313.698 27.6203V19.9105C313.701 19.5926 313.641 19.2773 313.521 18.9831C313.4 18.6889 313.222 18.4217 312.997 18.1971C312.772 17.9726 312.505 17.7953 312.21 17.6756C311.916 17.5559 311.6 17.4962 311.282 17.5001ZM311.765 27.6203C311.769 27.6846 311.759 27.7491 311.736 27.8093C311.713 27.8696 311.678 27.9243 311.632 27.9699C311.586 28.0154 311.532 28.0508 311.471 28.0737C311.411 28.0966 311.347 28.1065 311.282 28.1026H303.573C303.508 28.1065 303.444 28.0966 303.384 28.0737C303.323 28.0508 303.269 28.0154 303.223 27.9699C303.177 27.9243 303.142 27.8696 303.119 27.8093C303.096 27.7491 303.086 27.6846 303.09 27.6203V19.9105C303.086 19.8462 303.096 19.7817 303.119 19.7215C303.142 19.6612 303.177 19.6065 303.223 19.5609C303.269 19.5154 303.323 19.48 303.384 19.4571C303.444 19.4342 303.508 19.4243 303.573 19.4282H311.282C311.347 19.4243 311.411 19.4342 311.471 19.4571C311.532 19.48 311.586 19.5154 311.632 19.5609C311.678 19.6065 311.713 19.6612 311.736 19.7215C311.759 19.7817 311.769 19.8462 311.765 19.9105V27.6203Z" fill="white"/>
<path d="M308.877 21.3575H305.986C305.857 21.3495 305.728 21.3689 305.607 21.4144C305.487 21.4599 305.377 21.5306 305.286 21.6216C305.194 21.7127 305.123 21.8221 305.078 21.9427C305.032 22.0632 305.012 22.1922 305.02 22.3209V25.2124C305.012 25.3411 305.031 25.4701 305.077 25.5907C305.123 25.7113 305.194 25.8208 305.285 25.912C305.376 26.0032 305.485 26.074 305.606 26.1197C305.727 26.1654 305.856 26.185 305.984 26.1771H308.876C309.005 26.185 309.134 26.1654 309.254 26.1197C309.375 26.074 309.484 26.0032 309.575 25.912C309.667 25.8208 309.737 25.7113 309.783 25.5907C309.829 25.4701 309.848 25.3411 309.841 25.2124V22.3209C309.848 22.1924 309.829 22.0637 309.783 21.9434C309.737 21.823 309.666 21.7137 309.575 21.6227C309.484 21.5316 309.375 21.4609 309.255 21.4152C309.134 21.3695 309.006 21.3499 308.877 21.3575ZM307.911 24.2503H306.948V23.283H307.911V24.2503ZM325.752 17.5H318.031C317.714 17.4975 317.4 17.5582 317.107 17.6786C316.814 17.7989 316.547 17.9765 316.323 18.2008C316.099 18.4252 315.922 18.692 315.803 18.9855C315.683 19.279 315.623 19.5935 315.626 19.9105V27.6202C315.622 27.9376 315.682 28.2526 315.801 28.5468C315.921 28.8409 316.097 29.1083 316.321 29.3333C316.545 29.5582 316.812 29.7362 317.106 29.8569C317.399 29.9775 317.714 30.0384 318.031 30.0359H325.745C326.064 30.04 326.38 29.9803 326.675 29.8603C326.97 29.7404 327.238 29.5626 327.463 29.3375C327.688 29.1124 327.866 28.8445 327.986 28.5496C328.106 28.2546 328.166 27.9387 328.162 27.6202V19.9105C328.165 19.593 328.105 19.2782 327.985 18.9843C327.865 18.6904 327.688 18.4234 327.463 18.199C327.239 17.9745 326.972 17.7971 326.678 17.677C326.384 17.557 326.069 17.4968 325.752 17.5ZM326.234 27.6202C326.238 27.6846 326.228 27.749 326.205 27.8093C326.182 27.8695 326.147 27.9242 326.101 27.9698C326.056 28.0154 326.001 28.0508 325.941 28.0737C325.88 28.0966 325.816 28.1064 325.752 28.1026H318.031C317.967 28.1064 317.903 28.0966 317.842 28.0737C317.782 28.0508 317.727 28.0154 317.682 27.9698C317.636 27.9242 317.601 27.8695 317.578 27.8093C317.555 27.749 317.545 27.6846 317.549 27.6202V19.9105C317.545 19.8461 317.555 19.7817 317.578 19.7214C317.601 19.6612 317.636 19.6065 317.682 19.5609C317.727 19.5153 317.782 19.4799 317.842 19.457C317.903 19.4341 317.967 19.4243 318.031 19.4281H325.745C325.809 19.4243 325.874 19.4341 325.934 19.457C325.994 19.4799 326.049 19.5153 326.095 19.5609C326.14 19.6065 326.176 19.6612 326.199 19.7214C326.221 19.7817 326.231 19.8461 326.227 19.9105L326.234 27.6202Z" fill="white"/>
<path d="M323.341 21.3575H320.45C320.321 21.3497 320.192 21.3692 320.071 21.4149C319.951 21.4606 319.841 21.5314 319.75 21.6226C319.659 21.7138 319.588 21.8233 319.542 21.944C319.497 22.0646 319.477 22.1935 319.485 22.3222V25.2137C319.477 25.3425 319.497 25.4714 319.542 25.592C319.588 25.7126 319.659 25.8222 319.75 25.9134C319.841 26.0046 319.951 26.0754 320.071 26.1211C320.192 26.1668 320.321 26.1863 320.45 26.1784H323.341C323.47 26.1863 323.599 26.1668 323.719 26.1211C323.84 26.0754 323.95 26.0046 324.041 25.9134C324.132 25.8222 324.203 25.7126 324.249 25.592C324.294 25.4714 324.314 25.3425 324.306 25.2137V22.3222C324.314 22.1935 324.294 22.0646 324.249 21.944C324.203 21.8233 324.132 21.7138 324.041 21.6226C323.95 21.5314 323.84 21.4606 323.719 21.4149C323.599 21.3692 323.47 21.3497 323.341 21.3575ZM322.376 24.249H321.412V23.2856H322.376V24.249ZM301.162 42.0896C301.159 42.407 301.219 42.7218 301.339 43.0157C301.459 43.3096 301.637 43.5766 301.861 43.8011C302.086 44.0255 302.353 44.203 302.646 44.323C302.94 44.443 303.255 44.5032 303.573 44.5H311.282C311.6 44.5032 311.915 44.443 312.209 44.323C312.502 44.203 312.769 44.0255 312.994 43.8011C313.218 43.5766 313.396 43.3096 313.516 43.0157C313.636 42.7218 313.696 42.407 313.693 42.0896V34.3693C313.695 34.0523 313.635 33.738 313.514 33.4447C313.394 33.1514 313.216 32.8851 312.992 32.6612C312.768 32.4373 312.501 32.2603 312.207 32.1406C311.914 32.0209 311.599 31.9609 311.282 31.9641H303.573C303.256 31.9609 302.941 32.0209 302.648 32.1406C302.354 32.2603 302.087 32.4373 301.863 32.6612C301.639 32.8851 301.461 33.1514 301.341 33.4447C301.22 33.738 301.16 34.0523 301.162 34.3693V42.0896ZM303.09 34.3693C303.086 34.3049 303.096 34.2405 303.119 34.1802C303.142 34.12 303.177 34.0653 303.223 34.0197C303.269 33.9741 303.323 33.9387 303.384 33.9158C303.444 33.8929 303.508 33.8831 303.573 33.8869H311.282C311.347 33.8831 311.411 33.8929 311.471 33.9158C311.532 33.9387 311.586 33.9741 311.632 34.0197C311.678 34.0653 311.713 34.12 311.736 34.1802C311.759 34.2405 311.769 34.3049 311.765 34.3693V42.083C311.769 42.1473 311.759 42.2118 311.736 42.272C311.713 42.3323 311.678 42.387 311.632 42.4326C311.586 42.4781 311.532 42.5135 311.471 42.5364C311.411 42.5593 311.347 42.5692 311.282 42.5653H303.573C303.508 42.5692 303.444 42.5593 303.384 42.5364C303.323 42.5135 303.269 42.4781 303.223 42.4326C303.177 42.387 303.142 42.3323 303.119 42.272C303.096 42.2118 303.086 42.1473 303.09 42.083V34.3693Z" fill="white"/>
<path d="M305.984 40.6385H308.876C309.005 40.6464 309.134 40.6268 309.254 40.5811C309.375 40.5355 309.484 40.4647 309.575 40.3735C309.667 40.2823 309.737 40.1727 309.783 40.0521C309.829 39.9315 309.848 39.8026 309.841 39.6738V36.7823C309.848 36.6536 309.829 36.5247 309.783 36.404C309.737 36.2834 309.667 36.1739 309.575 36.0827C309.484 35.9915 309.375 35.9207 309.254 35.875C309.134 35.8293 309.005 35.8097 308.876 35.8176H305.984C305.855 35.8097 305.726 35.8293 305.605 35.8752C305.485 35.921 305.375 35.9921 305.284 36.0836C305.192 36.1751 305.122 36.2849 305.076 36.4058C305.031 36.5268 305.011 36.656 305.02 36.785V39.6765C305.012 39.805 305.032 39.9336 305.078 40.0539C305.124 40.1742 305.195 40.2834 305.286 40.3743C305.377 40.4652 305.486 40.5358 305.607 40.5813C305.727 40.6269 305.856 40.6464 305.984 40.6385ZM306.949 37.747H307.911V38.7117H306.948L306.949 37.747ZM325.752 31.964H318.031C317.714 31.9609 317.399 32.0211 317.105 32.1411C316.811 32.2611 316.544 32.4385 316.32 32.663C316.095 32.8875 315.918 33.1545 315.798 33.4483C315.678 33.7422 315.618 34.0571 315.621 34.3745V42.0843C315.617 42.4021 315.677 42.7176 315.796 43.0121C315.916 43.3066 316.093 43.5742 316.318 43.7992C316.542 44.0242 316.81 44.2021 317.104 44.3225C317.398 44.4428 317.713 44.5032 318.031 44.5H325.745C326.063 44.5041 326.38 44.4443 326.675 44.3244C326.969 44.2045 327.238 44.0267 327.463 43.8016C327.688 43.5765 327.866 43.3085 327.986 43.0136C328.106 42.7187 328.166 42.4027 328.162 42.0843V34.3745C328.165 34.0571 328.105 33.7422 327.985 33.4483C327.865 33.1545 327.688 32.8875 327.463 32.663C327.239 32.4385 326.972 32.2611 326.678 32.1411C326.384 32.0211 326.069 31.9609 325.752 31.964ZM326.234 42.0843C326.238 42.1486 326.228 42.213 326.205 42.2733C326.182 42.3336 326.147 42.3883 326.101 42.4339C326.056 42.4794 326.001 42.5148 325.941 42.5377C325.88 42.5606 325.816 42.5705 325.752 42.5666H318.031C317.967 42.5705 317.903 42.5606 317.842 42.5377C317.782 42.5148 317.727 42.4794 317.682 42.4339C317.636 42.3883 317.601 42.3336 317.578 42.2733C317.555 42.213 317.545 42.1486 317.549 42.0843V34.3745C317.545 34.3102 317.555 34.2457 317.578 34.1855C317.601 34.1252 317.636 34.0705 317.682 34.0249C317.727 33.9793 317.782 33.9439 317.842 33.9211C317.903 33.8982 317.967 33.8883 318.031 33.8921H325.745C325.809 33.8883 325.874 33.8982 325.934 33.9211C325.994 33.9439 326.049 33.9793 326.095 34.0249C326.14 34.0705 326.176 34.1252 326.199 34.1855C326.221 34.2457 326.231 34.3102 326.227 34.3745L326.234 42.0843Z" fill="white"/>
<path d="M323.341 35.8216H320.45C320.321 35.8137 320.192 35.8333 320.071 35.879C319.951 35.9247 319.841 35.9955 319.75 36.0867C319.659 36.1779 319.588 36.2874 319.542 36.408C319.497 36.5286 319.477 36.6576 319.485 36.7863V39.6778C319.477 39.8065 319.497 39.9355 319.542 40.0561C319.588 40.1767 319.659 40.2862 319.75 40.3774C319.841 40.4686 319.951 40.5394 320.071 40.5851C320.192 40.6308 320.321 40.6504 320.45 40.6425H323.341C323.47 40.6504 323.599 40.6308 323.719 40.5851C323.84 40.5394 323.95 40.4686 324.041 40.3774C324.132 40.2862 324.203 40.1767 324.249 40.0561C324.294 39.9355 324.314 39.8065 324.306 39.6778V36.7863C324.314 36.6576 324.294 36.5286 324.249 36.408C324.203 36.2874 324.132 36.1779 324.041 36.0867C323.95 35.9955 323.84 35.9247 323.719 35.879C323.599 35.8333 323.47 35.8137 323.341 35.8216ZM322.375 38.7131H321.41V37.7484H322.375V38.7131Z" fill="white"/>
</g>
<path d="M277.787 55H351.537V95C351.537 99.4183 347.955 103 343.537 103H285.787C281.369 103 277.787 99.4183 277.787 95V55Z" fill="white"/>
<path d="M314.72 73.014L313.712 73.672L313.026 72.65C312.242 73.0327 311.44 73.224 310.618 73.224C309.162 73.224 307.94 72.72 306.95 71.712C305.961 70.7133 305.466 69.472 305.466 67.988C305.466 66.504 305.961 65.2627 306.95 64.264C307.94 63.256 309.162 62.752 310.618 62.752C312.074 62.752 313.297 63.2607 314.286 64.278C315.276 65.2767 315.77 66.5133 315.77 67.988C315.77 68.772 315.616 69.5047 315.308 70.186C315.01 70.8673 314.58 71.46 314.02 71.964L314.72 73.014ZM310.618 71.992C311.216 71.992 311.78 71.8613 312.312 71.6L311.136 69.836L312.144 69.15L313.306 70.9C314.072 70.1627 314.454 69.192 314.454 67.988C314.454 66.8213 314.086 65.8647 313.348 65.118C312.62 64.362 311.71 63.984 310.618 63.984C309.526 63.984 308.612 64.362 307.874 65.118C307.146 65.874 306.782 66.8307 306.782 67.988C306.782 69.1453 307.146 70.102 307.874 70.858C308.612 71.614 309.526 71.992 310.618 71.992ZM318.578 64.208V67.736H320.65C321.173 67.736 321.616 67.568 321.98 67.232C322.344 66.8867 322.526 66.462 322.526 65.958C322.526 65.4913 322.354 65.0853 322.008 64.74C321.672 64.3853 321.248 64.208 320.734 64.208H318.578ZM318.578 73H317.29V62.976H320.706C321.574 62.976 322.312 63.2653 322.918 63.844C323.534 64.4133 323.842 65.118 323.842 65.958C323.842 66.6487 323.614 67.2647 323.156 67.806C322.708 68.338 322.139 68.6787 321.448 68.828L321.42 68.87L324.234 72.944V73H322.708L320.006 68.94H318.578V73ZM310.427 84.774C310.427 85.026 310.338 85.2407 310.161 85.418C309.983 85.5953 309.769 85.684 309.517 85.684C309.265 85.684 309.05 85.5953 308.873 85.418C308.695 85.2407 308.607 85.026 308.607 84.774C308.607 84.522 308.695 84.3073 308.873 84.13C309.05 83.9527 309.265 83.864 309.517 83.864C309.769 83.864 309.983 83.9527 310.161 84.13C310.338 84.3073 310.427 84.522 310.427 84.774ZM310.161 87.14V94H308.873V87.14H310.161ZM313.125 83.976V94H311.837V83.976H313.125ZM317.706 94.224C316.698 94.224 315.867 93.8787 315.214 93.188C314.56 92.4973 314.234 91.6247 314.234 90.57C314.234 89.5247 314.551 88.6567 315.186 87.966C315.82 87.266 316.632 86.916 317.622 86.916C318.639 86.916 319.446 87.2473 320.044 87.91C320.65 88.5633 320.954 89.4827 320.954 90.668L320.94 90.808H315.55C315.568 91.48 315.792 92.0213 316.222 92.432C316.651 92.8427 317.164 93.048 317.762 93.048C318.583 93.048 319.227 92.6373 319.694 91.816L320.842 92.376C320.534 92.9547 320.104 93.4073 319.554 93.734C319.012 94.0607 318.396 94.224 317.706 94.224ZM315.648 89.744H319.582C319.544 89.268 319.348 88.876 318.994 88.568C318.648 88.2507 318.182 88.092 317.594 88.092C317.108 88.092 316.688 88.2413 316.334 88.54C315.988 88.8387 315.76 89.24 315.648 89.744Z" fill="#6F6F6F"/>
</g>
<defs>
<filter id="filter0_d_1_211" x="0.537109" y="0" width="89.75" height="112" filterUnits="userSpaceOnUse" color-interpolation-filters="sRGB">
<feFlood flood-opacity="0" result="BackgroundImageFix"/>
<feColorMatrix in="SourceAlpha" type="matrix" values="0 0 0 0 0 0 0 0 0 0 0 0 0 0 0 0 0 0 127 0" result="hardAlpha"/>
<feOffset dy="1"/>
<feGaussianBlur stdDeviation="4"/>
<feComposite in2="hardAlpha" operator="out"/>
<feColorMatrix type="matrix" values="0 0 0 0 0 0 0 0 0 0 0 0 0 0 0 0 0 0 0.16 0"/>
<feBlend mode="normal" in2="BackgroundImageFix" result="effect1_dropShadow_1_211"/>
<feBlend mode="normal" in="SourceGraphic" in2="effect1_dropShadow_1_211" result="shape"/>
</filter>
<filter id="filter1_d_1_211" x="90.2871" y="0" width="89.75" height="112" filterUnits="userSpaceOnUse" color-interpolation-filters="sRGB">
<feFlood flood-opacity="0" result="BackgroundImageFix"/>
<feColorMatrix in="SourceAlpha" type="matrix" values="0 0 0 0 0 0 0 0 0 0 0 0 0 0 0 0 0 0 127 0" result="hardAlpha"/>
<feOffset dy="1"/>
<feGaussianBlur stdDeviation="4"/>
<feComposite in2="hardAlpha" operator="out"/>
<feColorMatrix type="matrix" values="0 0 0 0 0 0 0 0 0 0 0 0 0 0 0 0 0 0 0.16 0"/>
<feBlend mode="normal" in2="BackgroundImageFix" result="effect1_dropShadow_1_211"/>
<feBlend mode="normal" in="SourceGraphic" in2="effect1_dropShadow_1_211" result="shape"/>
</filter>
<filter id="filter2_d_1_211" x="180.037" y="0" width="89.75" height="112" filterUnits="userSpaceOnUse" color-interpolation-filters="sRGB">
<feFlood flood-opacity="0" result="BackgroundImageFix"/>
<feColorMatrix in="SourceAlpha" type="matrix" values="0 0 0 0 0 0 0 0 0 0 0 0 0 0 0 0 0 0 127 0" result="hardAlpha"/>
<feOffset dy="1"/>
<feGaussianBlur stdDeviation="4"/>
<feComposite in2="hardAlpha" operator="out"/>
<feColorMatrix type="matrix" values="0 0 0 0 0 0 0 0 0 0 0 0 0 0 0 0 0 0 0.16 0"/>
<feBlend mode="normal" in2="BackgroundImageFix" result="effect1_dropShadow_1_211"/>
<feBlend mode="normal" in="SourceGraphic" in2="effect1_dropShadow_1_211" result="shape"/>
</filter>
<filter id="filter3_d_1_211" x="269.787" y="0" width="89.75" height="112" filterUnits="userSpaceOnUse" color-interpolation-filters="sRGB">
<feFlood flood-opacity="0" result="BackgroundImageFix"/>
<feColorMatrix in="SourceAlpha" type="matrix" values="0 0 0 0 0 0 0 0 0 0 0 0 0 0 0 0 0 0 127 0" result="hardAlpha"/>
<feOffset dy="1"/>
<feGaussianBlur stdDeviation="4"/>
<feComposite in2="hardAlpha" operator="out"/>
<feColorMatrix type="matrix" values="0 0 0 0 0 0 0 0 0 0 0 0 0 0 0 0 0 0 0.16 0"/>
<feBlend mode="normal" in2="BackgroundImageFix" result="effect1_dropShadow_1_211"/>
<feBlend mode="normal" in="SourceGraphic" in2="effect1_dropShadow_1_211" result="shape"/>
</filter>
<clipPath id="clip0_1_211">
<rect width="27" height="27" fill="white" transform="translate(301.162 17.5)"/>
</clipPath>
</defs>
</svg>
