<svg width="33" height="32" viewBox="0 0 33 32" fill="none" xmlns="http://www.w3.org/2000/svg">
<g clip-path="url(#clip0_1_111)">
<path d="M16.5371 32C25.3737 32 32.5371 24.8366 32.5371 16C32.5371 7.16344 25.3737 0 16.5371 0C7.70055 0 0.537109 7.16344 0.537109 16C0.537109 24.8366 7.70055 32 16.5371 32Z" fill="white"/>
<path d="M16.5371 31.5429C25.1212 31.5429 32.08 24.5841 32.08 16C32.08 7.41593 25.1212 0.457153 16.5371 0.457153C7.95302 0.457153 0.994247 7.41593 0.994247 16C0.994247 24.5841 7.95302 31.5429 16.5371 31.5429Z" stroke="#EAEAEA"/>
<path fill-rule="evenodd" clip-rule="evenodd" d="M14.296 8.22858H15.764V10.1425V12.0374L20.2232 10.421V11.5915L15.764 13.2082V13.524V13.8397L18.1792 12.985L20.2232 12.2232V12.7899V13.3379C20.2232 13.3875 20.2108 13.4122 20.186 13.4122L15.8937 14.9544C15.8442 14.9791 15.801 15.004 15.7638 15.0287V18.1597V21.2904V21.3093V21.3277C16.8909 21.1916 17.8882 20.7642 18.755 20.0456C19.7089 19.2652 20.347 18.2931 20.6691 17.1285C20.8049 16.5961 20.8733 16.0632 20.8733 15.5305H22.3597C22.3597 16.7325 22.0686 17.8654 21.4867 18.9306C21.0776 19.7481 20.5203 20.4542 19.8141 21.0488C19.1579 21.6309 18.4207 22.0771 17.6031 22.3865C16.538 22.7951 15.4354 22.938 14.2956 22.8138V19.1905V15.5489C14.2956 15.5489 14.2153 15.5798 14.0541 15.6419L11.5085 16.5524V15.3817L14.2957 14.3783V13.7279C14.1595 13.7898 13.9768 13.8641 13.7476 13.9511C13.5185 14.0377 13.3726 14.0872 13.3107 14.0996L11.8431 14.6383C11.8431 14.6383 11.803 14.6506 11.7224 14.6755C11.6421 14.7002 11.5706 14.7189 11.5086 14.7314V13.5609L14.2958 12.5758V10.4019C14.2959 9.49855 14.2959 8.77392 14.2959 8.22878L14.296 8.22858Z" fill="#101010"/>
</g>
<defs>
<clipPath id="clip0_1_111">
<rect width="32" height="32" fill="white" transform="translate(0.537109)"/>
</clipPath>
</defs>
</svg>
