<svg width="41" height="41" viewBox="0 0 41 41" fill="none" xmlns="http://www.w3.org/2000/svg">
<rect x="0.537109" y="0.363525" width="40" height="40" rx="8" fill="#1E98F4"/>
<g clip-path="url(#clip0_1_167)">
<path d="M25.5371 8.36353C23.9214 8.32579 22.3184 8.6572 20.8501 9.33253C20.2195 9.57054 19.6683 9.98083 19.2594 10.5167C18.8505 11.0525 18.6002 11.6924 18.5371 12.3635V16.3635C18.5479 16.49 18.569 16.6154 18.6001 16.7385C17.5991 16.4842 16.5699 16.3582 15.5371 16.3635C13.9214 16.3258 12.3184 16.6572 10.8501 17.3325C10.2195 17.5705 9.66833 17.9808 9.25941 18.5167C8.85049 19.0525 8.60023 19.6924 8.53711 20.3635V28.3635C8.60023 29.0346 8.85049 29.6745 9.25941 30.2104C9.66833 30.7462 10.2195 31.1565 10.8501 31.3945C12.3184 32.0699 13.9214 32.4013 15.5371 32.3635C17.1531 32.4014 18.7565 32.07 20.2251 31.3945C20.8556 31.1564 21.4065 30.746 21.8152 30.2102C22.224 29.6743 22.4741 29.0345 22.5371 28.3635V27.9575C23.5154 28.222 24.5238 28.3584 25.5371 28.3635C27.1531 28.4014 28.7565 28.07 30.2251 27.3945C30.8556 27.1564 31.4065 26.746 31.8152 26.2102C32.224 25.6743 32.4741 25.0345 32.5371 24.3635V12.3635C32.4741 11.6925 32.224 11.0527 31.8152 10.5169C31.4065 9.98105 30.8556 9.57069 30.2251 9.33253C28.7565 8.65705 27.1531 8.32564 25.5371 8.36353ZM25.5371 10.3635C26.8399 10.339 28.1317 10.6059 29.3181 11.1445C30.2211 11.5975 30.5371 12.0745 30.5371 12.3635C30.5371 12.6525 30.2211 13.1295 29.3181 13.5825C28.1317 14.1212 26.8399 14.388 25.5371 14.3635C24.2343 14.388 22.9425 14.1212 21.7561 13.5825C20.8531 13.1295 20.5371 12.6525 20.5371 12.3635C20.5371 12.0745 20.8531 11.5975 21.7561 11.1445C22.9425 10.6059 24.2343 10.339 25.5371 10.3635ZM20.5371 15.2075C20.6421 15.2665 20.7371 15.3405 20.8501 15.3955C22.3185 16.0705 23.9215 16.4016 25.5371 16.3635C27.1531 16.4014 28.7565 16.07 30.2251 15.3945C30.3341 15.3395 30.4321 15.2655 30.5381 15.2075V16.3635C30.5381 16.6525 30.2221 17.1295 29.3191 17.5825C28.1324 18.1213 26.8402 18.3882 25.5371 18.3635C24.2343 18.388 22.9425 18.1212 21.7561 17.5825C20.8531 17.1295 20.5371 16.6525 20.5371 16.3635V15.2075ZM15.5371 18.3635C16.8399 18.339 18.1317 18.6059 19.3181 19.1445C20.2181 19.5975 20.5371 20.0745 20.5371 20.3635C20.5371 20.6525 20.2211 21.1295 19.3181 21.5825C18.1317 22.1212 16.8399 22.388 15.5371 22.3635C14.2343 22.388 12.9426 22.1212 11.7561 21.5825C10.8531 21.1295 10.5371 20.6525 10.5371 20.3635C10.5371 20.0745 10.8531 19.5975 11.7561 19.1445C12.9426 18.6059 14.2343 18.339 15.5371 18.3635ZM30.5371 19.2075V20.3635C30.5371 20.6525 30.2211 21.1295 29.3181 21.5825C28.1317 22.1212 26.8399 22.388 25.5371 22.3635C24.5184 22.3691 23.5055 22.2107 22.5371 21.8945V20.3635C22.5266 20.2371 22.5059 20.1116 22.4751 19.9885C23.4758 20.2428 24.5047 20.3688 25.5371 20.3635C27.1531 20.4014 28.7565 20.07 30.2251 19.3945C30.3371 19.3405 30.4321 19.2635 30.5371 19.2075ZM10.5371 23.2075C10.6421 23.2665 10.7371 23.3405 10.8501 23.3955C12.3185 24.0705 13.9215 24.4016 15.5371 24.3635C17.1531 24.4014 18.7565 24.07 20.2251 23.3945C20.3341 23.3395 20.4321 23.2655 20.5381 23.2075V24.3635C20.5381 24.6525 20.2221 25.1295 19.3191 25.5825C18.1324 26.1213 16.8402 26.3882 15.5371 26.3635C14.2343 26.388 12.9426 26.1212 11.7561 25.5825C10.8531 25.1295 10.5371 24.6525 10.5371 24.3635V23.2075ZM30.5371 23.2075V24.3635C30.5371 24.6525 30.2211 25.1295 29.3181 25.5825C28.1317 26.1212 26.8399 26.388 25.5371 26.3635C24.5203 26.3767 23.5079 26.2292 22.5371 25.9265V23.9885C23.5167 24.2425 24.5251 24.3685 25.5371 24.3635C27.1531 24.4014 28.7565 24.07 30.2251 23.3945C30.3371 23.3405 30.4321 23.2635 30.5371 23.2075ZM10.5371 27.2075C10.6421 27.2665 10.7371 27.3405 10.8501 27.3955C12.3185 28.0705 13.9215 28.4016 15.5371 28.3635C17.1531 28.4014 18.7565 28.07 20.2251 27.3945C20.3341 27.3395 20.4321 27.2655 20.5381 27.2075V28.3635C20.5381 28.6525 20.2221 29.1295 19.3191 29.5825C18.1324 30.1213 16.8402 30.3882 15.5371 30.3635C14.2343 30.388 12.9426 30.1212 11.7561 29.5825C10.8531 29.1295 10.5371 28.6525 10.5371 28.3635V27.2075Z" fill="white"/>
</g>
<defs>
<clipPath id="clip0_1_167">
<rect width="24" height="24" fill="white" transform="translate(8.53711 8.36353)"/>
</clipPath>
</defs>
</svg>
